:SAMPLES-PER-SECOND 30
:FULLY-SPECIFIED
:DEGREES
1
root  78.4611 40.4773 -4.58017 -136.447 -89.3324 137.339
RightUpLeg  0.799244 -8.98162 -7.9168
RightLeg  0.525353 -3.2032 3.52523
RightFoot  -0.139667 -0.126135 1.21781
RightToes  -1.74624e-010 0 -3.6325e-017
Spine  2.16702 0.0977118 0.529972
Spine1  0.348398 0.380678 -1.62498
HEad  -5.89515 4.85075 -1.103
LeftShoulder1  0.94828 -1.26089 -12.7386
LeftArm  -17.9468 5.65846 1.21787
LeftForeArm  7.50754 0.746943 -1.62321
LeftHand  -0.244104 0.0205437 5.32207
RightShoulder  0.495047 -0.236128 7.63858
RightArm  -19.5778 5.75714 -0.275785
RightForeArm  0.50512 0.289982 4.09879
RightHand  -1.26626 4.6697 -14.8119
LeftUpLeg  0.623281 5.74111 4.00277
LeftLeg  -0.801969 17.8441 -4.58872
LeftFoot  -0.519294 0.128068 -1.35572
LeftToes  1.61887e-010 9.40759e-012 5.52375e-011
2
root  78.4493 40.4773 -4.57622 -141.806 -89.2977 142.743
RightUpLeg  0.749405 -8.91451 -7.85679
RightLeg  0.523916 -3.20925 3.47713
RightFoot  -0.154078 -0.12708 1.23247
RightToes  -1.74624e-010 0 -3.6325e-017
Spine  2.02622 0.0988463 0.594771
Spine1  0.462379 0.399366 -1.7212
HEad  -5.88381 4.81712 -1.11722
LeftShoulder1  0.934938 -1.21869 -12.622
LeftArm  -17.9121 5.70053 1.16422
LeftForeArm  7.39517 0.768822 -1.63401
LeftHand  -0.244104 0.0205437 5.32207
RightShoulder  0.492864 -0.247682 7.61397
RightArm  -19.6235 5.75177 -0.259404
RightForeArm  0.417873 0.235947 4.08334
RightHand  -1.26311 4.63975 -14.8327
LeftUpLeg  0.565713 5.77715 4.03203
LeftLeg  -0.721923 17.8745 -4.5803
LeftFoot  -0.572042 0.127871 -1.35266
LeftToes  1.61887e-010 9.40759e-012 5.52375e-011
3
root  78.428 40.4773 -4.56847 -148.691 -89.2426 149.688
RightUpLeg  0.683717 -8.83091 -7.78021
RightLeg  0.543637 -3.21671 3.4178
RightFoot  -0.176821 -0.127411 1.23761
RightToes  -1.74624e-010 0 -3.6325e-017
Spine  1.84152 0.0980601 0.591206
Spine1  0.594981 0.398843 -1.72971
HEad  -5.91957 4.72304 -1.12658
LeftShoulder1  0.908268 -1.1138 -12.4776
LeftArm  -17.8347 5.75808 1.10878
LeftForeArm  6.99573 0.802663 -1.67036
LeftHand  -0.244104 0.0205437 5.32207
RightShoulder  0.485684 -0.287251 7.55489
RightArm  -19.6623 5.73383 -0.259828
RightForeArm  0.690889 0.21111 4.05043
RightHand  -1.26221 4.70573 -14.7239
LeftUpLeg  0.511917 5.83017 4.07595
LeftLeg  -0.634775 17.9144 -4.58072
LeftFoot  -0.644428 0.126857 -1.3369
LeftToes  1.61887e-010 9.40759e-012 5.52375e-011
4
root  78.409 40.4771 -4.5623 -152.474 -89.2091 153.497
RightUpLeg  0.652141 -8.79594 -7.74373
RightLeg  0.582305 -3.21943 3.39611
RightFoot  -0.196407 -0.127318 1.23616
RightToes  -1.74624e-010 0 -3.6325e-017
Spine  1.7301 0.0758442 0.463614
Spine1  0.67882 0.349926 -1.59005
HEad  -6.00685 4.67807 -1.05288
LeftShoulder1  0.875082 -0.96077 -12.3952
LeftArm  -17.8042 5.77238 1.08661
LeftForeArm  6.62539 0.802449 -1.69661
LeftHand  -0.244104 0.0205437 5.32207
RightShoulder  0.487699 -0.273433 7.55219
RightArm  -19.6171 5.65385 -0.363023
RightForeArm  0.904473 0.292491 4.05423
RightHand  -1.26865 4.82641 -14.6293
LeftUpLeg  0.50599 5.85874 4.10401
LeftLeg  -0.597176 17.9398 -4.58161
LeftFoot  -0.692363 0.126652 -1.33371
LeftToes  1.61887e-010 9.40759e-012 5.52375e-011
5
root  78.3944 40.4762 -4.55992 -153.739 -89.2015 154.762
RightUpLeg  0.656582 -8.78927 -7.73729
RightLeg  0.614779 -3.22061 3.3945
RightFoot  -0.218905 -0.128828 1.2596
RightToes  -1.74624e-010 0 -3.6325e-017
Spine  1.60345 0.0428926 0.341704
Spine1  0.837954 0.301284 -1.50144
HEad  -6.12648 4.70367 -0.833411
LeftShoulder1  0.859278 -0.893587 -12.3268
LeftArm  -17.7924 5.80461 1.1153
LeftForeArm  6.5457 0.711917 -1.71184
LeftHand  -0.244104 0.0205437 5.32207
RightShoulder  0.502546 -0.195723 7.65836
RightArm  -19.6225 5.50842 -0.533179
RightForeArm  0.509213 0.371007 4.07197
RightHand  -1.28639 4.85704 -14.7857
LeftUpLeg  0.522689 5.86293 4.11453
LeftLeg  -0.578529 17.9491 -4.56996
LeftFoot  -0.721043 0.128918 -1.36894
LeftToes  1.61887e-010 9.40759e-012 5.52375e-011
6
root  78.3774 40.475 -4.55655 -153.743 -89.206 154.76
RightUpLeg  0.683566 -8.77071 -7.73679
RightLeg  0.631286 -3.23284 3.37371
RightFoot  -0.25754 -0.131977 1.30846
RightToes  -1.74624e-010 0 -3.6325e-017
Spine  1.42524 0.0394053 0.306504
Spine1  1.06596 0.308921 -1.55015
HEad  -6.20122 4.73093 -0.569221
LeftShoulder1  0.884282 -1.03622 -12.2638
LeftArm  -17.6341 5.9379 1.24561
LeftForeArm  6.62087 0.510532 -1.78061
LeftHand  -0.244104 0.0205437 5.32207
RightShoulder  0.505191 -0.194797 7.74373
RightArm  -19.8615 5.35116 -0.609232
RightForeArm  -0.0440237 0.308013 4.00309
RightHand  -1.28605 4.68549 -15.0227
LeftUpLeg  0.542032 5.86612 4.1149
LeftLeg  -0.548289 17.9381 -4.55657
LeftFoot  -0.753356 0.131291 -1.40582
LeftToes  1.61887e-010 9.40759e-012 5.52375e-011
